<svg xmlns="http://www.w3.org/2000/svg" xmlns:xlink="http://www.w3.org/1999/xlink" width="18" height="18" viewBox="0 0 18 18">
  <defs>
    <clipPath id="clip-path">
      <rect id="Rectangle_1174" data-name="Rectangle 1174" width="18" height="18" transform="translate(206 1431)" fill="#fff" stroke="#707070" stroke-width="1"/>
    </clipPath>
  </defs>
  <g id="Mask_Group_82" data-name="Mask Group 82" transform="translate(-206 -1431)" clip-path="url(#clip-path)">
    <g id="download" transform="translate(206 1431)">
      <g id="XMLID_7_">
        <path id="XMLID_8_" d="M15.4,7.553a5.443,5.443,0,0,0-4.818-5.186c-.053-.006-.111-.016-.173-.026A2.5,2.5,0,0,0,10,2.3a.686.686,0,0,0-.734.616.711.711,0,0,0,.106.558,1.054,1.054,0,0,0,.759.326c.075.01.146.02.206.033,2.406.538,3.217,1.383,3.613,3.769.01.058.014.13.019.206.017.285.053.879.691.879h0a1.133,1.133,0,0,0,.17-.014c.594-.09.575-.633.566-.893a1.323,1.323,0,0,1,0-.189A.254.254,0,0,0,15.4,7.553Z" fill="#fff"/>
        <path id="XMLID_9_" d="M9.843,1.436c.071.005.139.01.195.019,3.952.608,5.769,2.48,6.272,6.462a2.327,2.327,0,0,1,.011.238c.005.311.015.958.71.972h.022a.682.682,0,0,0,.515-.2,1.089,1.089,0,0,0,.189-.833c0-.066-.006-.129-.005-.183a8.053,8.053,0,0,0-7.545-7.9.282.282,0,0,0-.049,0,.34.34,0,0,1-.048,0c-.041,0-.091,0-.143-.007S9.831,0,9.757,0A.715.715,0,0,0,8.97.735C8.934,1.37,9.548,1.414,9.843,1.436Z" fill="#fff"/>
        <path id="XMLID_10_" d="M16.119,13.064c-.084-.064-.171-.131-.252-.2-.431-.347-.89-.667-1.334-.977l-.276-.193a2.755,2.755,0,0,0-1.563-.593,2.025,2.025,0,0,0-1.686,1.068.9.9,0,0,1-.769.467,1.527,1.527,0,0,1-.619-.156,7.454,7.454,0,0,1-3.9-3.793c-.362-.814-.245-1.346.393-1.779a1.8,1.8,0,0,0,.988-1.579C7.052,4.338,4.856,1.345,3.932,1A1.8,1.8,0,0,0,2.707,1,3.546,3.546,0,0,0,.5,2.817,3.374,3.374,0,0,0,.548,5.54a21.97,21.97,0,0,0,4.821,7.339,23.369,23.369,0,0,0,7.314,4.856,4.05,4.05,0,0,0,.723.215c.067.015.125.028.167.04a.281.281,0,0,0,.071.01h.023a4.149,4.149,0,0,0,3.446-2.622C17.546,14.154,16.755,13.55,16.119,13.064Z" fill="#fff"/>
        <path id="XMLID_11_" d="M10.436,4.671a.832.832,0,0,0-.875.5.676.676,0,0,0,.028.587.878.878,0,0,0,.663.35,1.567,1.567,0,0,1,1.454,1.565.741.741,0,0,0,.705.731h0a.694.694,0,0,0,.084-.005c.448-.053.665-.382.645-.978a2.792,2.792,0,0,0-.871-1.889A2.6,2.6,0,0,0,10.436,4.671Z" fill="#fff"/>
      </g>
    </g>
  </g>
</svg>
