<svg xmlns="http://www.w3.org/2000/svg" xmlns:xlink="http://www.w3.org/1999/xlink" width="70" height="70" viewBox="0 0 70 70">
  <defs>
    <clipPath id="clip-path">
      <rect id="Rectangle_1106" data-name="Rectangle 1106" width="70" height="70" rx="10" fill="#fff" stroke="#707070" stroke-width="1"/>
    </clipPath>
  </defs>
  <g id="Mask_Group_58" data-name="Mask Group 58" clip-path="url(#clip-path)">
    <g id="delivery" transform="translate(0 0.418)">
      <path id="Path_2" data-name="Path 2" d="M22.439,61.372a9.58,9.58,0,1,1-9.58,9.58,9.58,9.58,0,0,1,9.58-9.58Zm0,12.8a3.217,3.217,0,1,0-3.217-3.217,3.218,3.218,0,0,0,3.217,3.217Z" transform="translate(35.517 -11.367)"/>
      <path id="Path_3" data-name="Path 3" d="M65.3,61.372a9.58,9.58,0,1,1-9.58,9.58,9.58,9.58,0,0,1,9.58-9.58Zm0,12.8a3.217,3.217,0,1,0-3.217-3.217A3.217,3.217,0,0,0,65.3,74.169Z" transform="translate(-50.209 -11.367)"/>
      <path id="Path_4" data-name="Path 4" d="M57.382,11.367c4.638,0,8.582,3.907,8.582,9.263,0,5.468-4.876,9.517-7.771,11.932a1.265,1.265,0,0,1-1.624,0C53.678,30.145,48.8,26.1,48.8,20.631c0-5.356,3.948-9.263,8.582-9.263ZM57.365,24.7a4.353,4.353,0,1,0-4.352-4.353A4.353,4.353,0,0,0,57.365,24.7Z" transform="translate(-34.368 -11.367)"/>
      <path id="Path_5" data-name="Path 5" d="M11.812,59.674a1.271,1.271,0,0,0,.006-1.014,5.237,5.237,0,0,1,.15-5.391,5.1,5.1,0,0,1,5.745-2.217c.023.007.78.316,1.16.471a.457.457,0,0,0,.406-.03c.455-.266.931-.524,1.432-.772a.47.47,0,0,0,.208-.66c-1.027-1.713-1.631-4.092.193-6.088A5.628,5.628,0,0,1,25.3,42.216l17.758.6a4.176,4.176,0,0,1,3.83,4.181,5.225,5.225,0,0,1-2.541,4.63,2.893,2.893,0,0,0-1.233,1.141,11.667,11.667,0,0,0-1.368,5.7A4.759,4.759,0,0,0,46.5,63.209H52.3A3.228,3.228,0,0,0,55.129,61.6c1.217-2.167,2.378-6.491.182-13.391C54.105,44.427,52.34,37.9,52.823,33.453l-1.477-1.211a3.471,3.471,0,0,1-1.936,1.992,2.308,2.308,0,0,1-.748.126,2.456,2.456,0,0,1-1.554-.586c-1.453-1.18-2.1-3.965-1.505-6.478a4.09,4.09,0,0,1,2.323-3.152,2.349,2.349,0,0,1,2.3.46c1.238,1.005,1.882,3.175,1.682,5.349l1.458,1.2A7.409,7.409,0,0,1,60.2,26.332c.04,0,2.434.016,3.009.112a2.7,2.7,0,0,1,.914.347h0c1.535.9,2.67,3.3,2.67,5.933a7.331,7.331,0,0,1-2.507,5.493,5.249,5.249,0,0,1-1.085.593,2.082,2.082,0,0,1-.472.109,9.911,9.911,0,0,1-3.129-.165.2.2,0,0,0-.206.076.213.213,0,0,0-.03.233c1.733,3.92,4.935,12.1,6.725,16.819a1.419,1.419,0,0,0,1.47.911,13.722,13.722,0,0,1,12.3,5.291,2.471,2.471,0,0,1,.523,1.743,2.384,2.384,0,0,1-1.79,2.08,1.018,1.018,0,0,1-.1.021l-17.81,2.681a5.273,5.273,0,0,0-2.051.728,4.1,4.1,0,0,1-2.2.638h-43.3a2.706,2.706,0,0,1-2.713-2.594,17.9,17.9,0,0,1,1.4-7.709ZM48.888,26.255a.365.365,0,0,0-.221-.108c-.138,0-.279.142-.415.314a3.433,3.433,0,0,0-.578,1.324,5.984,5.984,0,0,0,.292,3.659c.142.3.452.774.758.774.256,0,.692-.584.94-1.631.421-1.775-.062-3.752-.775-4.332ZM62.96,36.346a.135.135,0,0,0,.213.041,5.341,5.341,0,0,0,1.5-3.66,5.661,5.661,0,0,0-1.233-3.773.131.131,0,0,0-.213.029,9.234,9.234,0,0,0-1.006,3.876,8.086,8.086,0,0,0,.743,3.487Zm-39.584,13.5H43.038c.5,0,1.72-1,1.72-2.851a2.087,2.087,0,0,0-1.739-2.057l-17.754-.594a3.48,3.48,0,0,0-2.58,1.064c-1.438,1.577.03,3.654.692,4.437ZM13.406,56.8a17.246,17.246,0,0,1,3.559-3.742,3.036,3.036,0,0,0-3.253,1.433,2.566,2.566,0,0,0-.3,2.308Z" transform="translate(-10.396 -11.367)"/>
    </g>
  </g>
</svg>
