<svg xmlns="http://www.w3.org/2000/svg" xmlns:xlink="http://www.w3.org/1999/xlink" width="20" height="20" viewBox="0 0 20 20">
  <defs>
    <clipPath id="clip-path">
      <rect id="Rectangle_1177" data-name="Rectangle 1177" width="20" height="20" transform="translate(1015 1441)" fill="#777"/>
    </clipPath>
  </defs>
  <g id="Mask_Group_84" data-name="Mask Group 84" transform="translate(-1015 -1441)" clip-path="url(#clip-path)">
    <g id="download_1_" data-name="download (1)" transform="translate(1015 1441)">
      <g id="Group_2016" data-name="Group 2016">
        <path id="Path_216" data-name="Path 216" d="M18.446,14.2,17.2,13.477l1.039-.514a.586.586,0,0,0-.519-1.051l-1.739.86-1.657-.956.176-.3a.586.586,0,1,0-1.015-.586l-.176.3-1.221-.7a2.149,2.149,0,0,0,0-1.052l1.221-.7.176.3a.586.586,0,1,0,1.015-.586l-.176-.3,1.657-.956,1.739.86a.586.586,0,1,0,.519-1.051L17.2,6.522,18.446,5.8a.586.586,0,0,0-.586-1.015l-1.251.722.075-1.156a.586.586,0,0,0-1.169-.075l-.125,1.936-1.657.957-.176-.3a.586.586,0,1,0-1.015.586l.176.3L11.5,8.46a2.149,2.149,0,0,0-.91-.526V6.523h.352a.586.586,0,0,0,0-1.172h-.352v-1.6L12.2,2.675a.586.586,0,0,0-.65-.975l-.964.643V.586a.586.586,0,1,0-1.172,0V2.343L8.45,1.7a.586.586,0,0,0-.65.975L9.414,3.751v1.6H9.063a.586.586,0,0,0,0,1.172h.352v1.41a2.149,2.149,0,0,0-.91.526L7.282,7.754l.176-.3a.586.586,0,1,0-1.015-.586l-.176.3-1.386-.8L4.756,4.432a.586.586,0,0,0-1.169.075l.075,1.156L2.14,4.786A.586.586,0,0,0,1.554,5.8l1.521.878-1.039.514a.586.586,0,0,0,.519,1.051L4.3,7.383l1.386.8-.176.3a.586.586,0,1,0,1.015.586l.176-.3,1.221.7a2.149,2.149,0,0,0,0,1.052l-1.221.7-.176-.3a.586.586,0,0,0-1.015.586l.176.3-1.386.8-1.739-.86a.586.586,0,1,0-.519,1.051l1.039.514L1.554,14.2a.586.586,0,1,0,.586,1.015l1.521-.878-.075,1.156a.586.586,0,0,0,1.169.075l.125-1.936,1.386-.8.176.3a.586.586,0,1,0,1.015-.586l-.176-.3L8.5,11.54a2.149,2.149,0,0,0,.91.526v1.41H9.063a.586.586,0,0,0,0,1.172h.352v1.913L7.8,17.637a.586.586,0,0,0,.65.975l.964-.643v1.444a.586.586,0,0,0,1.172,0V17.97l.964.643a.586.586,0,0,0,.65-.975l-1.614-1.076V14.648h.352a.586.586,0,0,0,0-1.172h-.352v-1.41a2.149,2.149,0,0,0,.91-.526l1.222.706-.176.3a.586.586,0,1,0,1.015.586l.176-.3,1.657.957.125,1.936a.586.586,0,1,0,1.169-.075l-.075-1.156,1.251.722a.586.586,0,0,0,.586-1.015ZM10,10.977A.977.977,0,1,1,10.977,10,.978.978,0,0,1,10,10.977Z" fill="#777"/>
      </g>
    </g>
  </g>
</svg>
