<svg xmlns="http://www.w3.org/2000/svg" xmlns:xlink="http://www.w3.org/1999/xlink" width="30" height="30" viewBox="0 0 30 30">
  <defs>
    <clipPath id="clip-path">
      <rect id="Rectangle_1174" data-name="Rectangle 1174" width="30" height="30" transform="translate(206 1431)" fill="#f2b94c" stroke="#707070" stroke-width="1"/>
    </clipPath>
  </defs>
  <g id="Mask_Group_82" data-name="Mask Group 82" transform="translate(-206 -1431)" clip-path="url(#clip-path)">
    <g id="download" transform="translate(206.393 1431)">
      <g id="XMLID_7_">
        <path id="XMLID_8_" d="M19.5,11.058c.036-4.23-3.566-8.107-8.03-8.643-.089-.011-.185-.027-.288-.044A4.174,4.174,0,0,0,10.5,2.3,1.143,1.143,0,0,0,9.274,3.323a1.185,1.185,0,0,0,.177.931,1.757,1.757,0,0,0,1.264.544c.125.017.244.033.343.056,4.011.9,5.361,2.305,6.021,6.282.016.1.023.217.031.344.029.475.089,1.464,1.152,1.464h0a1.888,1.888,0,0,0,.283-.023c.99-.15.959-1.054.944-1.489a2.205,2.205,0,0,1,0-.315A.423.423,0,0,0,19.5,11.058Z" transform="translate(5.773 1.531)" fill="#f2b94c"/>
        <path id="XMLID_9_" d="M10.426,2.393c.119.009.231.017.325.031C17.336,3.437,20.365,6.558,21.2,13.2a3.878,3.878,0,0,1,.019.4c.008.519.026,1.6,1.184,1.62h.036a1.137,1.137,0,0,0,.859-.326,1.814,1.814,0,0,0,.315-1.388c0-.11-.01-.215-.008-.306A13.422,13.422,0,0,0,11.035.019a.47.47,0,0,0-.082,0,.567.567,0,0,1-.08,0c-.068,0-.151-.006-.239-.012C10.526.008,10.406,0,10.283,0A1.192,1.192,0,0,0,8.971,1.225C8.911,2.283,9.934,2.357,10.426,2.393Z" transform="translate(5.586)" fill="#f2b94c"/>
        <path id="XMLID_10_" d="M26.709,21.176c-.14-.107-.285-.218-.42-.327-.719-.579-1.484-1.112-2.224-1.628L23.6,18.9a4.591,4.591,0,0,0-2.6-.989,3.376,3.376,0,0,0-2.81,1.78,1.493,1.493,0,0,1-1.282.778,2.545,2.545,0,0,1-1.032-.259,12.424,12.424,0,0,1-6.492-6.321c-.6-1.357-.408-2.244.655-2.966a3,3,0,0,0,1.647-2.632C11.6,6.633,7.937,1.644,6.4,1.077a3,3,0,0,0-2.042-.006A5.91,5.91,0,0,0,.676,4.1a5.623,5.623,0,0,0,.08,4.539A36.617,36.617,0,0,0,8.791,20.868a38.949,38.949,0,0,0,12.19,8.094,6.75,6.75,0,0,0,1.206.358c.112.025.208.047.279.066a.468.468,0,0,0,.119.017h.038c2.235,0,4.918-2.042,5.743-4.37C29.086,22.994,27.768,21.986,26.709,21.176Z" transform="translate(-0.236 0.597)" fill="#f2b94c"/>
        <path id="XMLID_11_" d="M11.054,4.672a1.387,1.387,0,0,0-1.458.84,1.126,1.126,0,0,0,.047.978,1.464,1.464,0,0,0,1.105.584,2.611,2.611,0,0,1,2.423,2.609A1.234,1.234,0,0,0,14.346,10.9h0a1.157,1.157,0,0,0,.139-.008c.746-.089,1.108-.637,1.075-1.629a4.653,4.653,0,0,0-1.452-3.148A4.333,4.333,0,0,0,11.054,4.672Z" transform="translate(5.946 3.114)" fill="#f2b94c"/>
      </g>
    </g>
  </g>
</svg>
