<svg xmlns="http://www.w3.org/2000/svg" xmlns:xlink="http://www.w3.org/1999/xlink" width="70" height="70" viewBox="0 0 70 70">
  <defs>
    <clipPath id="clip-path">
      <rect id="Rectangle_1104" data-name="Rectangle 1104" width="70" height="70" rx="10" transform="translate(198 2638)" fill="#fff" stroke="#707070" stroke-width="1"/>
    </clipPath>
  </defs>
  <g id="Mask_Group_60" data-name="Mask Group 60" transform="translate(-198 -2638)" clip-path="url(#clip-path)">
    <g id="download" transform="translate(193.714 2634.316)">
      <g id="Glyph">
        <path id="Path_14" data-name="Path 14" d="M9.676,28.807A97.848,97.848,0,0,0,17.5,39.3h2.123a31.615,31.615,0,0,0-1.138-4.523A33.39,33.39,0,0,0,9,20.559l1.648-1.82A35.8,35.8,0,0,1,20.813,34c.324.966.591,1.958.828,2.958.111-.2.225-.4.322-.614,2.764-6.14,1.421-15.918-4.454-19.31A11.74,11.74,0,0,0,8.3,16.364a5.158,5.158,0,0,0-3.249,2.51c-.652,1.647,1.138,4.538,4.627,9.933Z"/>
        <path id="Path_15" data-name="Path 15" d="M38,27.36a8.958,8.958,0,0,0-.551-2.163c-1.915-4.858-7.5-7.566-10.85-6.569a5.337,5.337,0,0,0-2.7,2.047,20.877,20.877,0,0,1,.715,15.654c.07-.086.154-.162.222-.246a22.842,22.842,0,0,0,4.654-11.653l2.441.268a25.155,25.155,0,0,1-5.17,12.908c-.468.592-.982,1.148-1.508,1.695h5.664l.1-.048A9.774,9.774,0,0,1,38,27.364Z"/>
        <path id="Path_16" data-name="Path 16" d="M60.421,39.3h12.3a7.086,7.086,0,0,0-3.152-2.535,8.992,8.992,0,0,0-2.579-.467c-1.127-.084-2.406-.179-3-1.362-.614-1.24.225-2.285.9-3.127a6.455,6.455,0,0,0,1.46-2.608c.607-2.646.614-7.088-1.862-8.481a4.813,4.813,0,0,0-3.751-.265A7.614,7.614,0,0,0,56.356,23.9c-.957,1.849-.4,3.9.142,5.881s1.105,4.064-.383,5.493c-1.512,1.455-3.72.86-5.858.276a9.261,9.261,0,0,1-.228,3.749h7.9c.307-1.739.653-3.48,1.055-5.194.688-2.928,1.525-5.858,2.489-8.708l2.326.786c-.938,2.777-1.754,5.632-2.423,8.485-.359,1.528-.669,3.08-.951,4.631Z"/>
        <path id="Path_17" data-name="Path 17" d="M47.47,39.3a7.155,7.155,0,0,0,.4-1.972l-2.042.68-.776-2.333,2.557-.852a7.381,7.381,0,0,0-5.853-5.236V31.93H39.3V29.584a7.381,7.381,0,0,0-5.443,4.15L36,34.45l-.776,2.333-2.03-.678q-.037.367-.038.737a7.228,7.228,0,0,0,.425,2.456ZM39.3,34.386h2.456v2.456H39.3Z"/>
        <path id="Path_18" data-name="Path 18" d="M14.311,39.3q-2.061-2.51-3.968-5.178A19.631,19.631,0,0,0,7.1,35.538,3.886,3.886,0,0,0,5.163,37.38,3.349,3.349,0,0,0,4.971,39.3Z"/>
        <path id="Path_19" data-name="Path 19" d="M4.934,41.754A33.2,33.2,0,0,0,38.07,73.684h2.456a33.2,33.2,0,0,0,33.136-31.93ZM25.255,67.421A33.351,33.351,0,0,1,11.231,54.672l2.1-1.275A30.913,30.913,0,0,0,26.324,65.211ZM30.7,68.772H28.246V66.316H30.7Z"/>
        <path id="Path_20" data-name="Path 20" d="M57.719,9.825V7.368H52.807a9.825,9.825,0,0,0-9.825,9.825v2.456h4.912a9.825,9.825,0,0,0,9.825-9.825Z"/>
        <circle id="Ellipse_14" data-name="Ellipse 14" cx="2.456" cy="2.456" r="2.456" transform="translate(31.93 7.368)"/>
        <circle id="Ellipse_15" data-name="Ellipse 15" cx="2.456" cy="2.456" r="2.456" transform="translate(15.965 3.684)"/>
      </g>
    </g>
  </g>
</svg>
