<svg xmlns="http://www.w3.org/2000/svg" xmlns:xlink="http://www.w3.org/1999/xlink" width="70" height="70" viewBox="0 0 70 70">
  <defs>
    <clipPath id="clip-path">
      <rect id="Rectangle_1105" data-name="Rectangle 1105" width="70" height="70" rx="10" transform="translate(498 2638)" fill="#fff" stroke="#707070" stroke-width="1"/>
    </clipPath>
  </defs>
  <g id="Mask_Group_61" data-name="Mask Group 61" transform="translate(-498 -2638)" clip-path="url(#clip-path)">
    <g id="download" transform="translate(488.105 2628.139)">
      <g id="icon_18_">
        <path id="Path_21" data-name="Path 21" d="M44.878,74.843H14.131A4.2,4.2,0,0,1,9.9,70.7a4.068,4.068,0,0,1,4.051-4.419c9.022-.046,18.089-.092,27.111-.092,11.507,0,22.968.046,34.476,0a4.684,4.684,0,0,1,4.281,3.36,4.48,4.48,0,0,1-2.9,5.2,2.027,2.027,0,0,1-.736.092Z"/>
        <path id="Path_22" data-name="Path 22" d="M75.257,54.866A30.7,30.7,0,0,0,50.632,28.63c-.184-.046-.414-.092-.6-.138a.887.887,0,0,1-.69-.875V23.7c.414-.092.782-.184,1.151-.276a4.387,4.387,0,0,0,3.13-4.6c-.184-1.933-1.933-3.866-3.682-3.912q-4.833-.069-9.666,0a4.21,4.21,0,0,0-4.051,3.774,4.347,4.347,0,0,0,3.084,4.695c.368.092.736.184,1.2.276,0,1.427.046,2.762-.046,4.143,0,.23-.414.552-.69.6A30.388,30.388,0,0,0,17.445,44.97a28.615,28.615,0,0,0-3.176,13.947,4.184,4.184,0,0,0,3.82,4.051H71.345A4.124,4.124,0,0,0,75.4,59.055a21.49,21.49,0,0,0-.138-4.189ZM64.072,56.707h-.184a1.67,1.67,0,0,1-1.611-1.427,19.6,19.6,0,0,0-10.31-14.867,1.6,1.6,0,1,1,1.335-2.9A22.794,22.794,0,0,1,65.453,54.866a1.62,1.62,0,0,1-1.381,1.841Z"/>
      </g>
    </g>
  </g>
</svg>
