<svg xmlns="http://www.w3.org/2000/svg" xmlns:xlink="http://www.w3.org/1999/xlink" width="14" height="14" viewBox="0 0 14 14">
  <defs>
    <clipPath id="clip-path">
      <rect id="Rectangle_1058" data-name="Rectangle 1058" width="14" height="14" transform="translate(1216 6026)" fill="#f2b94c" stroke="#707070" stroke-width="1"/>
    </clipPath>
  </defs>
  <g id="Mask_Group_74" data-name="Mask Group 74" transform="translate(-1216 -6026)" clip-path="url(#clip-path)">
    <g id="twitter" transform="translate(1216 6027.313)">
      <g id="Group_1995" data-name="Group 1995">
        <g id="Group_1994" data-name="Group 1994">
          <path id="Path_206" data-name="Path 206" d="M14,2.659a5.984,5.984,0,0,1-1.654.453,2.854,2.854,0,0,0,1.263-1.586,5.736,5.736,0,0,1-1.82.695A2.87,2.87,0,0,0,6.824,4.183a2.955,2.955,0,0,0,.067.655,8.124,8.124,0,0,1-5.916-3,2.871,2.871,0,0,0,.882,3.836,2.834,2.834,0,0,1-1.3-.353V5.35a2.883,2.883,0,0,0,2.3,2.82,2.865,2.865,0,0,1-.753.094,2.538,2.538,0,0,1-.543-.049,2.9,2.9,0,0,0,2.682,2A5.767,5.767,0,0,1,.687,11.439,5.376,5.376,0,0,1,0,11.4a8.08,8.08,0,0,0,4.4,1.288A8.113,8.113,0,0,0,12.572,4.52c0-.127,0-.249-.011-.371A5.726,5.726,0,0,0,14,2.659Z" transform="translate(0 -1.313)" fill="#f2b94c"/>
        </g>
      </g>
    </g>
  </g>
</svg>
