<svg xmlns="http://www.w3.org/2000/svg" xmlns:xlink="http://www.w3.org/1999/xlink" width="70" height="70" viewBox="0 0 70 70">
  <defs>
    <clipPath id="clip-path">
      <rect id="Rectangle_1107" data-name="Rectangle 1107" width="70" height="70" rx="10" transform="translate(1098 2638)" fill="#fff" stroke="#707070" stroke-width="1"/>
    </clipPath>
  </defs>
  <g id="Mask_Group_59" data-name="Mask Group 59" transform="translate(-1098 -2638)" clip-path="url(#clip-path)">
    <g id="conference" transform="translate(1095.667 2635.667)">
      <circle id="Ellipse_5" data-name="Ellipse 5" cx="3.5" cy="3.5" r="3.5" transform="translate(33.833 2.333)"/>
      <path id="Path_6" data-name="Path 6" d="M30.333,16.333h14a7,7,0,0,0-14,0Z"/>
      <circle id="Ellipse_6" data-name="Ellipse 6" cx="3.5" cy="3.5" r="3.5" transform="translate(52.5 11.667)"/>
      <path id="Path_7" data-name="Path 7" d="M49,25.667H63a7,7,0,1,0-14,0Z"/>
      <circle id="Ellipse_7" data-name="Ellipse 7" cx="3.5" cy="3.5" r="3.5" transform="translate(52.5 49)"/>
      <path id="Path_8" data-name="Path 8" d="M49,63H63a7,7,0,0,0-14,0Z"/>
      <circle id="Ellipse_8" data-name="Ellipse 8" cx="3.5" cy="3.5" r="3.5" transform="translate(33.833 58.333)"/>
      <path id="Path_9" data-name="Path 9" d="M30.333,72.333h14a7,7,0,0,0-14,0Z"/>
      <circle id="Ellipse_9" data-name="Ellipse 9" cx="3.5" cy="3.5" r="3.5" transform="translate(61.833 30.333)"/>
      <path id="Path_10" data-name="Path 10" d="M65.333,37.333a7,7,0,0,0-7,7h14A7,7,0,0,0,65.333,37.333Z"/>
      <path id="Path_11" data-name="Path 11" d="M18.667,18.667a7,7,0,0,0-7,7h14A7,7,0,0,0,18.667,18.667Z"/>
      <circle id="Ellipse_10" data-name="Ellipse 10" cx="3.5" cy="3.5" r="3.5" transform="translate(15.167 49)"/>
      <path id="Path_12" data-name="Path 12" d="M11.667,63h14a7,7,0,0,0-14,0Z"/>
      <circle id="Ellipse_11" data-name="Ellipse 11" cx="3.5" cy="3.5" r="3.5" transform="translate(5.833 30.333)"/>
      <circle id="Ellipse_12" data-name="Ellipse 12" cx="3.5" cy="3.5" r="3.5" transform="translate(15.167 11.667)"/>
      <path id="Path_13" data-name="Path 13" d="M9.333,37.333a7,7,0,0,0-7,7h14A7,7,0,0,0,9.333,37.333Z"/>
      <circle id="Ellipse_13" data-name="Ellipse 13" cx="11.667" cy="11.667" r="11.667" transform="translate(25.667 25.667)"/>
    </g>
  </g>
</svg>
