<svg xmlns="http://www.w3.org/2000/svg" xmlns:xlink="http://www.w3.org/1999/xlink" width="16" height="16" viewBox="0 0 16 16">
  <defs>
    <clipPath id="clip-path">
      <rect id="Rectangle_1185" data-name="Rectangle 1185" width="16" height="16" transform="translate(637 603)" fill="rgba(0,0,0,0.45)" stroke="#707070" stroke-width="1"/>
    </clipPath>
  </defs>
  <g id="Mask_Group_90" data-name="Mask Group 90" transform="translate(-637 -603)" clip-path="url(#clip-path)">
    <g id="calendar" transform="translate(636.501 602.526)">
      <g id="Group_2021" data-name="Group 2021">
        <path id="Path_219" data-name="Path 219" d="M14.754,1h-1.5v1.5a.5.5,0,1,1-1,0V1H4.287v1.5a.5.5,0,1,1-1,0V1h-1.5a1.373,1.373,0,0,0-1.3,1.5V4.287h15.95V2.492A1.682,1.682,0,0,0,14.754,1ZM.5,5.333v9.121a1.353,1.353,0,0,0,1.346,1.5H14.8a1.682,1.682,0,0,0,1.695-1.5V5.333Zm4.436,8.374h-1.2a.393.393,0,0,1-.4-.4V12.062a.393.393,0,0,1,.4-.4H4.984a.393.393,0,0,1,.4.4v1.246a.436.436,0,0,1-.449.4Zm0-4.486h-1.2a.393.393,0,0,1-.4-.4V7.576a.393.393,0,0,1,.4-.4H4.984a.393.393,0,0,1,.4.4V8.822a.436.436,0,0,1-.449.4Zm3.988,4.486H7.676a.393.393,0,0,1-.4-.4V12.062a.393.393,0,0,1,.4-.4H8.922a.393.393,0,0,1,.4.4v1.246A.367.367,0,0,1,8.922,13.707Zm0-4.486H7.676a.393.393,0,0,1-.4-.4V7.576a.393.393,0,0,1,.4-.4H8.922a.393.393,0,0,1,.4.4V8.822A.367.367,0,0,1,8.922,9.221Zm3.988,4.486H11.664a.393.393,0,0,1-.4-.4V12.062a.393.393,0,0,1,.4-.4H12.91a.393.393,0,0,1,.4.4v1.246A.367.367,0,0,1,12.91,13.707Zm0-4.486H11.664a.393.393,0,0,1-.4-.4V7.576a.393.393,0,0,1,.4-.4H12.91a.393.393,0,0,1,.4.4V8.822A.367.367,0,0,1,12.91,9.221Z" fill="rgba(0,0,0,0.45)"/>
      </g>
    </g>
  </g>
</svg>
