<svg xmlns="http://www.w3.org/2000/svg" xmlns:xlink="http://www.w3.org/1999/xlink" width="16" height="16" viewBox="0 0 16 16">
  <defs>
    <clipPath id="clip-path">
      <rect id="Rectangle_1430" data-name="Rectangle 1430" width="16" height="16" transform="translate(1040 184)" stroke="#707070" stroke-width="1"/>
    </clipPath>
  </defs>
  <g id="Mask_Group_161" data-name="Mask Group 161" transform="translate(-1040 -184)" clip-path="url(#clip-path)">
    <g id="close" transform="translate(1040 184)">
      <g id="_02_User" data-name="02 User" transform="translate(0)">
        <path id="Path_188" data-name="Path 188" d="M.781,16a.781.781,0,0,1-.552-1.334L14.666.229a.781.781,0,0,1,1.1,1.1L1.334,15.771A.779.779,0,0,1,.781,16Z" transform="translate(0 0)"/>
        <path id="Path_189" data-name="Path 189" d="M15.218,16a.779.779,0,0,1-.552-.229L.229,1.334a.781.781,0,1,1,1.1-1.1L15.771,14.666A.781.781,0,0,1,15.218,16Z" transform="translate(0 0)"/>
      </g>
    </g>
  </g>
</svg>
