<svg xmlns="http://www.w3.org/2000/svg" width="14" height="14" viewBox="0 0 14 14">
  <path id="Path_428" data-name="Path 428" d="M13.9,3.4h-.7V2.7a.7.7,0,0,0-1.4,0v.7H6.2V2.7A.661.661,0,0,0,5.5,2a.661.661,0,0,0-.7.7v.7H4.1A2.063,2.063,0,0,0,2,5.5v.7H16V5.5A2.063,2.063,0,0,0,13.9,3.4ZM2,13.9A2.063,2.063,0,0,0,4.1,16h9.8A2.063,2.063,0,0,0,16,13.9V7.6H2ZM12.5,9a.7.7,0,1,1-.7.7A.661.661,0,0,1,12.5,9Zm0,2.8a.7.7,0,1,1-.7.7A.661.661,0,0,1,12.5,11.8ZM9,9a.7.7,0,1,1-.7.7A.661.661,0,0,1,9,9Zm0,2.8a.7.7,0,1,1-.7.7A.661.661,0,0,1,9,11.8ZM5.5,9a.7.7,0,1,1,0,1.4A.7.7,0,1,1,5.5,9Zm0,2.8a.7.7,0,1,1,0,1.4.7.7,0,0,1,0-1.4Z" transform="translate(-2 -2)" fill="#f2b94c"/>
</svg>
